<svg version="1.1" id="Layer_1" xmlns="http://www.w3.org/2000/svg" xmlns:xlink="http://www.w3.org/1999/xlink" x="0px" y="0px"
	 width="100%" viewBox="0 0 1024 1024" enable-background="new 0 0 1024 1024" xml:space="preserve">
<path fill="#000000" opacity="1.000000" stroke="none" 
	d="
M999.975952,575.131226 
	C1004.268433,607.608948 1008.511780,639.656311 1006.911560,672.113953 
	C1006.019592,690.206482 1007.614319,708.446960 1004.063416,726.375610 
	C1002.056519,736.508362 1000.173523,746.647400 998.593994,756.858582 
	C997.426880,764.403625 993.596252,770.948975 989.157654,777.063904 
	C987.187073,779.778748 984.546936,781.365540 980.944031,780.502625 
	C977.279785,779.625000 974.852295,781.215454 973.255310,784.458008 
	C972.078674,786.847229 970.590515,789.106506 969.631165,791.575195 
	C966.328369,800.074707 960.655518,806.461975 953.524536,812.099731 
	C947.393677,816.946655 941.495483,821.743286 934.403503,825.374451 
	C926.988281,829.171143 919.506714,830.802429 911.427124,830.933167 
	C902.778381,831.073059 894.096313,830.318542 885.515564,832.169312 
	C875.445312,834.341187 866.485779,838.341614 858.264099,844.908936 
	C852.915710,849.181335 847.568054,853.871033 841.112610,856.723145 
	C836.305542,858.847107 832.458862,862.441223 828.620483,865.793823 
	C821.143860,872.324402 812.242310,873.457886 803.019470,873.971069 
	C794.304443,874.456055 785.759277,872.715820 777.149841,871.850647 
	C758.722107,869.998840 740.699585,871.064453 722.938416,877.142273 
	C714.978821,879.865906 706.355896,880.688477 698.005493,882.218201 
	C693.259583,883.087646 689.005005,885.149353 685.544495,888.232056 
	C678.363525,894.629089 669.338196,897.315552 660.959961,901.306091 
	C658.800476,902.334534 656.384644,902.209534 654.106506,901.416504 
	C646.801392,898.873230 640.796509,895.469177 636.538330,888.014160 
	C630.428833,877.317993 620.107056,870.325073 608.409058,866.855774 
	C594.606628,862.762329 580.306885,861.752930 566.015442,865.218628 
	C560.780518,866.488159 556.560974,870.013611 551.362854,871.495422 
	C547.328186,872.645630 543.731323,872.691833 539.694702,871.476074 
	C520.187561,865.600708 500.341400,861.494751 479.877747,860.934143 
	C473.344391,860.755127 466.910736,861.252625 460.538757,862.777344 
	C441.711823,867.282288 422.541748,869.198853 403.317566,871.263367 
	C385.448425,873.182373 368.540375,868.832153 351.303253,866.494263 
	C332.166412,863.898743 313.135651,860.723450 293.711304,860.901245 
	C283.204346,860.997498 273.384186,857.633362 264.131897,852.759033 
	C257.193512,849.103760 249.676971,847.693726 242.016754,847.113892 
	C235.795624,846.642883 229.807877,845.497437 224.072845,843.065674 
	C209.515488,836.893066 194.553268,835.229065 179.080521,838.910889 
	C161.114182,843.186218 144.429825,839.401489 128.524368,830.787720 
	C124.113518,828.398987 121.125008,824.417297 118.535042,820.483826 
	C102.478584,796.098206 93.005249,769.690857 95.019653,739.974304 
	C95.347122,735.143555 95.898048,730.340149 97.094650,725.655090 
	C102.438896,704.730408 112.021973,685.845703 124.885422,668.581543 
	C128.080887,664.292725 130.688492,659.656250 133.504761,655.133179 
	C140.341888,644.152344 140.250565,632.998901 137.295868,620.607239 
	C132.636993,601.068359 129.245560,581.211914 125.208870,561.510742 
	C123.809830,554.682678 125.744774,547.575928 128.543167,541.040833 
	C131.165909,534.916016 134.078629,528.915161 136.690445,522.785889 
	C144.542114,504.359985 142.477142,486.143555 132.310135,469.753937 
	C124.853851,457.734161 119.833496,445.648132 119.267998,431.610138 
	C118.530807,413.310059 117.408630,395.020660 116.993385,376.714386 
	C116.757652,366.321564 119.175346,356.219604 122.963310,346.503998 
	C125.167549,340.850464 128.269485,335.884277 132.766174,331.639740 
	C141.796463,323.115875 147.605286,312.027588 155.336395,302.458374 
	C162.618530,293.444855 169.650055,284.257690 177.262833,275.466278 
	C186.806854,264.444611 198.583847,258.349579 210.990662,252.365707 
	C218.518295,248.735092 224.294540,243.153915 228.988144,236.253967 
	C234.210358,228.576920 241.098755,222.434631 249.193481,218.079529 
	C257.388367,213.670532 266.045135,210.092468 274.610748,206.408890 
	C281.477356,203.455963 288.952057,203.593811 296.230255,202.995407 
	C310.436523,201.827362 324.181946,198.570023 337.625610,194.042084 
	C343.477905,192.070984 347.317139,187.042450 351.488892,182.879868 
	C376.231018,158.192215 411.110016,145.885773 445.693481,149.703934 
	C459.258179,151.201553 472.863525,152.255844 486.560699,152.150818 
	C497.849640,152.064255 509.187683,152.253311 520.187317,155.568665 
	C521.520569,155.970520 523.158325,155.607376 524.606689,155.338837 
	C530.162720,154.308670 535.565308,152.514832 540.911499,150.857040 
	C565.189819,143.328644 589.076782,145.601227 613.315430,151.372971 
	C627.639404,154.783798 637.188477,164.687668 648.251953,172.789551 
	C659.061340,180.705322 669.145020,189.622528 682.473938,193.835800 
	C691.308167,196.628311 698.037170,195.103470 704.211121,188.786789 
	C717.764709,174.919785 735.629822,174.686081 749.650452,188.089508 
	C754.256287,192.492630 759.484314,196.054199 765.469299,198.373093 
	C774.772095,201.977478 784.046631,205.505890 793.803711,207.953827 
	C808.969116,211.758636 821.457031,221.036133 833.416931,230.559341 
	C846.288208,240.808334 858.630981,251.847336 869.136047,264.585236 
	C884.929382,283.735352 899.215576,303.896149 911.131897,325.828979 
	C921.845276,345.547699 931.375671,365.955872 944.688782,384.273956 
	C952.782898,395.411041 954.012878,409.087738 954.920837,422.439484 
	C956.145081,440.443024 958.274963,458.258240 963.691650,475.550079 
	C967.551514,487.871979 975.193176,497.995087 982.784790,508.125183 
	C984.178345,509.984772 986.128113,511.513306 986.682922,513.847351 
	C989.060547,523.849731 993.368164,533.417236 993.143799,544.014709 
	C993.040833,548.875488 994.680908,553.521301 995.900696,558.199524 
	C997.328918,563.676758 998.595215,569.196228 999.975952,575.131226 
M172.534088,661.406494 
	C168.056244,666.241638 174.102371,667.317871 174.956375,671.286072 
	C177.613815,666.112366 177.693863,665.648865 174.454941,664.754517 
	C171.666687,663.984619 172.727249,662.525879 173.596680,660.700256 
	C174.949539,657.200684 181.093079,657.619446 180.795731,651.770630 
	C176.994446,654.471252 174.227875,657.050232 172.534088,661.406494 
M455.784210,321.732574 
	C439.840027,315.180481 423.087616,314.594727 406.190857,314.931152 
	C398.151550,315.091248 390.266296,316.213409 382.549164,318.391174 
	C378.131409,319.637878 377.374146,321.688995 380.342438,324.530762 
	C392.144104,335.829224 396.623657,349.736603 395.316376,365.733124 
	C393.672089,385.852448 384.743835,401.209167 365.907196,409.859680 
	C359.524261,412.790955 352.843140,414.880371 345.771942,415.292755 
	C342.410980,415.488708 340.942810,416.978088 341.304993,420.365417 
	C341.782227,424.829071 342.250061,429.297607 342.551056,433.775543 
	C344.151062,457.578583 344.612000,481.331604 339.143707,504.799561 
	C337.873810,510.249603 338.424347,510.571106 343.781433,509.462006 
	C363.542694,505.370789 387.763641,507.120544 398.567017,529.756714 
	C400.023987,532.809326 401.989685,531.858521 403.371307,529.535339 
	C405.517212,525.927063 407.910431,522.490845 411.144775,519.835999 
	C413.884583,517.587036 415.454712,514.819336 416.165375,511.477081 
	C417.803802,503.771118 418.293701,496.009888 417.118958,488.183258 
	C416.958557,487.114563 416.285034,485.940796 417.680115,485.040863 
	C419.664459,485.813721 419.740662,487.916199 420.589508,489.411896 
	C423.711243,494.912384 426.638763,500.522675 429.713593,506.050354 
	C430.767334,507.944733 431.928497,509.879852 434.530640,509.868317 
	C444.011627,509.826385 453.657501,511.205688 462.915894,510.246521 
	C479.415527,508.537109 495.828369,508.858490 512.279907,509.301178 
	C516.850342,509.424194 518.364441,507.541595 518.612793,503.694214 
	C519.044250,497.010101 518.737427,490.407501 516.314514,484.020996 
	C511.200684,470.541565 501.981537,460.078735 491.439117,450.745728 
	C487.880768,447.595581 487.902740,445.618652 490.409210,441.765442 
	C503.448853,421.719788 507.654175,399.511719 502.963257,376.308655 
	C497.640564,349.980713 480.728577,332.639252 455.784210,321.732574 
M680.267517,697.793823 
	C695.227051,690.478821 705.085938,677.930969 713.967957,664.519348 
	C726.013977,646.330200 734.164429,626.315979 740.733215,605.610535 
	C746.690735,586.831848 749.684448,567.712646 746.687195,548.041870 
	C745.407654,539.644653 742.182129,532.015686 735.586670,526.240051 
	C731.595276,522.744873 727.139404,521.067017 721.769043,522.802124 
	C717.066467,524.321411 712.221802,524.550354 707.482971,523.116760 
	C697.361816,520.054932 689.632568,523.627380 683.176270,531.336487 
	C680.280884,534.793579 677.608154,538.362976 675.367554,542.295105 
	C668.513733,554.323181 664.970215,567.442444 662.222412,580.866272 
	C661.669983,583.565308 662.071167,586.665283 659.364197,589.649841 
	C656.909485,578.888489 654.458618,568.887573 650.485718,559.387390 
	C643.202820,541.972534 634.500061,526.225952 613.821411,521.168152 
	C604.891113,518.983948 596.820129,519.170227 588.540710,522.574707 
	C579.687561,526.215088 579.197693,528.808899 586.677002,534.463989 
	C601.037659,545.322144 610.344971,559.500732 614.973328,576.822205 
	C622.457703,604.831726 621.728271,632.899780 611.307373,659.690918 
	C606.603394,671.784424 609.717041,678.556396 618.352051,685.410950 
	C618.612244,685.617554 618.835205,685.870605 619.091736,686.082336 
	C637.098450,700.942688 656.677368,707.906555 680.267517,697.793823 
M667.424377,445.049164 
	C665.601929,445.668701 664.097534,447.353729 661.821594,446.747437 
	C660.751221,444.624237 661.520813,442.425629 661.814270,440.404968 
	C664.333496,423.057220 665.249756,405.617554 664.629578,388.126709 
	C664.006287,370.548523 661.117859,353.514496 653.138123,337.447571 
	C639.232178,309.448669 603.330688,308.407501 583.850220,327.008942 
	C581.002686,329.727966 580.908936,331.997681 582.895386,335.255615 
	C586.812439,341.679749 589.490845,348.670776 591.419861,355.966705 
	C595.529480,371.510376 596.601868,387.417053 597.607544,403.372711 
	C598.731018,421.197540 598.717041,439.020294 597.775024,456.819885 
	C596.994080,471.576965 596.526978,486.420990 592.741516,500.857391 
	C590.346130,509.992493 589.835022,509.316284 600.363770,510.487335 
	C600.852295,510.541718 601.361328,510.453613 601.856750,510.397156 
	C615.697083,508.820404 627.395325,513.395630 637.378418,522.818115 
	C641.767883,526.961121 645.294495,531.788696 648.559937,536.855347 
	C651.121399,540.829590 654.095154,540.758423 656.734985,536.927612 
	C657.490417,535.831482 658.096130,534.632568 658.844543,533.531067 
	C666.984131,521.550903 677.150269,511.826508 692.016235,509.942749 
	C703.459595,508.492737 715.178711,507.955048 726.611206,511.417206 
	C730.294922,512.532776 734.099792,512.119202 736.376038,508.411957 
	C744.376831,495.381042 749.115967,481.969238 743.723267,466.319641 
	C736.722473,446.003601 721.534851,434.576477 700.534302,435.379944 
	C689.017273,435.820587 678.418640,439.866364 667.424377,445.049164 
M530.201599,520.337463 
	C523.067139,519.231812 515.908386,519.907837 508.768646,520.166443 
	C503.121124,520.370972 497.444794,520.669312 491.860382,521.474487 
	C486.481476,522.250061 484.731934,525.241760 487.209595,529.338928 
	C494.353485,541.152161 495.836304,554.398926 497.243683,567.632935 
	C499.473877,588.604248 498.279694,609.477112 495.364410,630.347656 
	C492.152924,653.338684 484.680542,674.244202 468.321930,691.343994 
	C463.145172,696.755310 463.564514,697.682617 470.466553,700.805420 
	C484.089111,706.968872 498.812225,707.357605 513.115479,707.293335 
	C529.183228,707.221191 545.271912,704.538696 560.565002,698.751526 
	C580.976257,691.027527 596.114990,677.868652 602.957886,656.656799 
	C610.664734,632.767212 612.205933,608.509888 606.914001,583.777893 
	C602.468567,563.001770 591.197205,547.435913 573.346863,536.263672 
	C560.306458,528.101929 546.137146,523.080200 530.201599,520.337463 
M322.368408,539.153320 
	C309.323639,520.873047 290.744354,516.465759 270.168030,520.154053 
	C249.680191,523.826477 239.236206,539.225281 235.675705,557.980347 
	C230.872681,583.280396 233.144867,609.079712 235.028107,634.648315 
	C235.683426,643.545166 233.565369,648.073853 225.320251,651.517212 
	C219.852570,653.800537 214.004486,654.117310 208.262650,654.947937 
	C199.532013,656.210938 194.289276,661.471191 191.465042,669.443359 
	C188.631134,677.442749 191.385315,684.149536 196.788971,690.039612 
	C203.906265,697.797424 213.074081,702.003540 223.023224,704.693420 
	C241.319122,709.639954 259.754883,709.171814 278.427673,706.851562 
	C303.708588,703.710022 320.154053,690.389221 328.589691,666.516174 
	C335.184937,647.851562 334.019745,628.445007 334.331421,609.223633 
	C334.503662,598.603149 333.378113,587.952759 332.650208,577.328735 
	C331.750305,564.194092 330.906891,551.006531 322.368408,539.153320 
M210.467316,315.778046 
	C208.016708,312.393799 204.812561,312.804382 201.288620,313.681244 
	C189.257401,316.674896 179.259781,322.963196 171.373566,332.402924 
	C165.621429,339.288147 161.761597,347.243500 161.377258,356.371948 
	C161.062286,363.852875 160.977066,371.383026 161.473755,378.845856 
	C161.856049,384.589935 163.920898,389.994110 167.575241,394.439270 
	C173.458221,392.789001 176.042358,388.784302 177.558762,383.747498 
	C178.082260,382.008728 178.734924,380.030762 180.991180,379.957703 
	C183.065018,379.890564 183.551651,381.832489 184.253647,383.284424 
	C189.681244,394.510681 198.857788,401.094910 210.462799,404.872955 
	C219.330124,407.759766 228.424271,408.245239 237.607834,407.896942 
	C241.462006,407.750763 243.239319,408.209015 242.613464,413.091858 
	C240.050507,433.087891 238.640945,453.195374 239.352280,473.376129 
	C239.739410,484.358704 240.743057,495.312653 243.709030,505.957672 
	C245.184738,511.254059 247.371490,512.494019 252.516312,511.526489 
	C256.274536,510.819794 260.041199,510.153564 263.786469,509.383545 
	C270.970245,507.906616 275.652222,502.689789 277.135345,495.673584 
	C278.473480,489.343109 275.997498,483.892975 274.236267,478.198303 
	C271.685852,469.952057 270.415253,461.560638 273.490784,453.231201 
	C275.355438,448.181244 277.054443,443.199219 277.003387,437.755615 
	C276.984283,435.719086 277.192657,433.490448 278.550354,432.063019 
	C283.972931,426.362091 287.115784,419.052704 292.316437,413.181458 
	C298.580109,406.110077 307.148254,402.538788 314.830231,397.637573 
	C328.065491,389.193268 338.736328,379.062775 340.106567,362.189331 
	C340.293793,359.883728 341.922150,358.278870 343.695587,356.977234 
	C350.644073,351.877411 354.594635,344.049225 360.780121,338.235138 
	C362.136414,336.960236 362.877472,334.813202 363.414703,332.928925 
	C364.620209,328.700806 363.646576,325.324463 358.955261,323.890198 
	C356.096008,323.016022 353.299805,321.788696 350.377960,321.288147 
	C307.834686,313.999908 265.297699,313.505219 222.783737,321.613434 
	C214.226761,323.245392 214.214264,323.179840 210.467316,315.778046 
M458.135529,541.878723 
	C457.760529,543.842163 457.454041,545.821594 456.997772,547.765991 
	C455.561676,553.886414 451.491852,556.547363 445.203613,555.530823 
	C443.232574,555.212158 441.246399,554.951294 439.301697,554.511353 
	C424.619659,551.189514 416.424622,557.562317 416.023987,572.594910 
	C415.828888,579.915771 415.721405,587.246826 415.221344,594.549133 
	C414.857819,599.857117 414.105652,605.213562 411.001923,609.778687 
	C408.006683,614.184265 403.461456,614.211731 400.319458,609.931580 
	C397.980591,606.745422 397.362488,602.938538 396.675446,599.163757 
	C395.110962,590.568054 395.734283,581.888062 395.738525,573.242371 
	C395.740356,569.471741 394.506256,566.915955 391.038025,565.264099 
	C387.622101,563.637146 385.127594,564.931641 382.353149,566.904419 
	C376.954926,570.742859 374.340881,576.263733 374.502106,582.356079 
	C375.001312,601.220581 362.657806,615.187805 356.567902,631.513489 
	C356.291168,632.255310 355.635284,632.902893 355.037781,633.469727 
	C352.431244,635.942505 350.887207,639.069214 349.499908,642.295044 
	C345.491302,651.616150 344.379181,661.557312 343.333344,671.501526 
	C343.041168,674.279846 344.046173,676.782166 345.767548,678.924866 
	C348.583832,682.430481 351.512970,685.823608 355.029907,688.691772 
	C370.965576,701.688293 389.239746,706.753540 409.711761,706.891907 
	C450.188782,707.165405 475.316895,680.259094 483.669281,648.604248 
	C491.923950,617.319580 492.582336,585.463318 487.467682,553.527771 
	C486.328339,546.413818 484.119812,539.583008 479.791412,533.670715 
	C476.735840,529.497070 469.355255,527.828308 466.107910,530.909241 
	C463.018738,533.840088 459.701477,536.796204 458.135529,541.878723 
M751.888428,596.120056 
	C749.708862,604.148621 747.557495,612.179565 744.646545,619.993408 
	C742.498230,625.759949 742.745544,625.868286 748.854858,627.951416 
	C750.530212,628.522705 752.942993,628.096863 754.162354,631.199219 
	C751.587585,631.199219 749.447388,631.446899 747.385498,631.150269 
	C742.285156,630.416504 739.732666,632.480713 737.720703,637.313477 
	C730.710205,654.152832 721.420349,669.723633 709.885803,683.909424 
	C706.383850,688.216431 706.548584,689.382263 711.130310,692.605896 
	C716.360657,696.285889 722.177246,698.706726 728.252869,700.619019 
	C747.737305,706.751587 767.655457,706.324341 787.644165,704.543884 
	C792.856323,704.079590 795.455566,700.892395 795.770203,695.549561 
	C796.290039,686.718811 797.104309,677.905396 800.677124,669.689819 
	C805.514954,658.565369 814.792053,653.772644 825.072144,656.814148 
	C830.517944,658.425415 833.979675,662.323547 837.010742,666.880005 
	C840.385742,671.953613 847.689087,671.444031 850.239502,665.941711 
	C855.231689,655.171265 856.485168,643.832764 854.024597,632.277283 
	C850.854553,617.389893 841.125549,607.374390 828.436035,599.996399 
	C816.829468,593.247925 804.249146,588.947510 791.128723,586.157349 
	C789.398438,585.789429 787.193848,585.997925 786.041931,583.971252 
	C786.566895,583.541687 786.802185,583.181763 787.059753,583.164978 
	C789.047974,583.035767 791.039917,582.922424 793.031860,582.897583 
	C805.949890,582.736633 818.604553,581.317932 830.357544,575.364441 
	C840.403198,570.275818 845.612610,561.986389 845.522034,550.873596 
	C845.432190,539.847168 839.677612,532.267883 829.861511,527.257080 
	C818.601624,521.509277 806.524414,519.478271 794.191772,518.758179 
	C779.567871,517.904175 764.894348,517.445984 750.386658,520.279297 
	C745.286560,521.275269 744.731567,522.734436 747.543701,526.946960 
	C753.366760,535.669922 755.727234,545.435425 756.290222,555.730469 
	C757.023743,569.144165 755.100220,582.291626 751.888428,596.120056 
M672.099060,329.604370 
	C667.032837,334.657867 665.775818,339.908875 668.541016,347.121124 
	C673.388611,359.764435 674.887024,373.279510 675.201904,386.774323 
	C675.453857,397.570679 676.080994,408.421570 674.415710,419.187988 
	C673.746216,423.516266 675.291870,425.079712 679.880066,424.862518 
	C688.522339,424.453461 697.197571,424.548340 705.854675,424.693268 
	C717.241821,424.883850 727.414551,428.608307 736.028137,436.128998 
	C753.054016,450.994690 763.172302,478.004364 751.516846,502.297760 
	C750.694458,504.011871 749.426270,505.775024 750.180969,507.988068 
	C752.268433,509.539124 754.676208,508.895508 756.929749,508.878448 
	C779.902954,508.704865 802.934021,507.877472 825.212219,515.154663 
	C827.600098,515.934631 829.060181,514.890930 830.358826,513.228455 
	C848.316284,490.239929 847.295410,464.657196 826.453430,444.589233 
	C817.675293,436.137024 806.600098,433.673645 794.556091,434.841370 
	C783.262146,435.936340 772.848633,439.642578 762.798828,444.668274 
	C760.928467,445.603607 759.195801,447.141754 756.923157,446.673706 
	C755.770569,445.595367 756.317322,444.437531 756.457520,443.311035 
	C758.781006,424.636383 760.267761,405.919495 759.692993,387.071136 
	C759.249207,372.519897 757.349304,358.221649 752.338501,344.500214 
	C748.140808,333.005249 742.029053,322.814972 730.981995,316.506073 
	C712.081299,305.712158 688.371521,310.832214 672.099060,329.604370 
M832.146606,710.504089 
	C837.368042,697.580200 834.249695,685.027832 830.255798,672.596436 
	C828.745056,667.893982 825.670532,664.582397 820.212952,664.255493 
	C814.464539,663.911133 810.860352,667.298401 809.038330,671.861145 
	C804.596863,682.983459 802.669983,694.584839 805.960693,706.430237 
	C807.551880,712.157898 811.504272,715.865234 817.555176,716.729126 
	C823.270264,717.544922 828.604919,717.009460 832.146606,710.504089 
M565.260254,347.020477 
	C565.941162,346.292236 566.609497,345.551849 567.304932,344.837708 
	C572.478455,339.524597 572.679565,337.931885 567.848938,332.391510 
	C562.790344,326.589722 557.026672,321.475616 549.938293,318.306702 
	C541.372620,314.477417 532.357422,313.434265 523.155396,315.642700 
	C517.677124,316.957458 516.544983,320.571045 520.243408,324.717407 
	C522.115173,326.815887 523.991394,329.355713 526.424500,330.429382 
	C535.824951,334.577637 543.564758,341.172394 551.975037,346.786163 
	C555.901550,349.406952 560.265381,350.221710 565.260254,347.020477 
M556.155090,173.437546 
	C555.797913,170.335129 561.005981,168.369995 558.629517,165.550262 
	C556.938110,163.543365 553.337402,163.145264 550.588196,162.030563 
	C549.818115,161.718307 549.054871,161.386520 548.273560,161.104965 
	C540.795105,158.409973 532.970093,158.309143 525.177368,158.208496 
	C523.099609,158.181671 520.470581,158.464188 519.690735,160.854767 
	C518.863831,163.389404 521.207825,164.595016 522.865479,165.938202 
	C525.314880,167.922928 527.919495,169.748398 530.176208,171.932755 
	C537.898132,179.406937 547.369080,180.236038 556.155090,173.437546 
M213.190872,562.294739 
	C211.215942,566.518616 212.690857,570.953796 212.429993,575.282532 
	C212.366257,576.339905 213.020935,577.158447 214.220139,577.287476 
	C215.613068,577.437256 216.584991,576.766418 216.708603,575.448547 
	C217.140442,570.844666 217.996124,566.095825 213.190872,562.294739 
M568.550781,502.284790 
	C568.454102,503.256561 568.160339,504.257263 568.298096,505.194611 
	C568.695923,507.903687 570.682556,508.968475 573.127686,509.318237 
	C574.729553,509.547394 575.720764,508.584656 575.805725,507.112305 
	C575.983521,504.029602 574.971619,500.987976 572.698730,499.171936 
	C570.777344,497.636780 569.703003,500.064941 568.550781,502.284790 
z"/>
<path fill="#000000" opacity="1.000000" stroke="none" 
	d="
M429.251831,414.792664 
	C425.376465,421.251312 419.185944,423.679932 412.512970,421.688904 
	C406.689270,419.951355 403.280273,414.739258 403.729218,408.259186 
	C404.143188,402.284241 408.765961,397.356201 415.159607,396.074127 
	C424.753571,394.150269 432.099915,403.625977 429.251831,414.792664 
z"/>
<path fill="#000000" opacity="1.000000" stroke="none" 
	d="
M533.467651,620.396057 
	C528.441956,625.090942 523.039001,624.941956 517.420166,622.802734 
	C513.723694,621.395386 512.912659,618.139587 512.788025,614.708557 
	C512.629578,610.348816 513.723145,606.408936 517.848755,604.083801 
	C522.129822,601.671082 529.057678,602.487061 532.341919,605.648499 
	C536.220215,609.381714 536.729675,614.697388 533.467651,620.396057 
z"/>
<path fill="#000000" opacity="1.000000" stroke="none" 
	d="
M188.703461,341.681183 
	C186.859238,343.500183 186.311874,347.629974 183.318024,345.829987 
	C180.931808,344.395264 182.866394,341.202698 183.708084,339.003906 
	C185.665741,333.889709 191.670029,330.040527 198.310791,329.678223 
	C194.996811,333.808197 191.954575,337.599518 188.703461,341.681183 
z"/>
</svg>